<svg xmlns="http://www.w3.org/2000/svg" viewBox="220 0 600 650">

<path fill="#050505" d="M504.093 0L519.913 0C529.154 1.94448 538.236 4.28728 546.422 9.18669C561.731 18.3491 572.711 34.0945 577.024 51.2534C581.768 69.8256 578.827 89.5263 568.865 105.903C559.315 121.472 543.906 132.549 526.105 136.642C509.47 140.598 491.943 137.709 477.457 128.624C461.689 118.888 450.463 103.258 446.271 85.2065C442.313 67.7598 445.139 45.833 455.167 30.9397C468.054 11.7999 482.678 4.68685 504.093 0Z"></path>

<path fill="#050505" d="M591.661 405.884L591.492 279.204L591.476 244.752C591.474 232.28 590.894 220.092 593.72 207.764C601.399 174.256 630.499 147.636 664.517 142.907C672.27 141.83 680.634 142.114 688.501 142.083L715.257 141.991C739.181 142.109 760.533 150.519 777.434 167.548C787.807 177.965 795.294 190.899 799.161 205.082C803.819 222.565 802.494 253.455 802.459 272.76L802.401 335.146C801.985 381.53 771.244 416.073 725.431 422.456C682.404 423.117 634.968 423.283 591.835 422.624C591.84 417.044 591.782 411.463 591.661 405.884Z"></path>

<path fill="#FB5119" d="M691.256 208.091C711.737 205.959 730.478 218.538 732.701 239.218C734.252 253.647 733.415 271.382 733.463 286.181L733.554 311.08C733.571 316.527 733.759 322.082 733.103 327.494C731.202 343.182 718.84 353.804 703.624 355.965C692.317 357.043 671.793 356.441 659.854 356.346L659.901 280.922C659.877 267.777 659.045 252.215 660.551 239.326C662.434 223.211 676.09 211.27 691.256 208.091Z"></path>

<path fill="#050505" d="M301.106 422.684C262.19 418.659 232.752 394.154 223.483 355.477C220.671 343.74 221.607 329.247 221.65 317.066L221.742 274.572L221.63 241.608C221.598 233.954 221.34 225.713 222.118 218.174C224.438 195.653 235.7 175.006 253.378 160.864C270.975 146.623 291.728 141.361 314.079 142.034C328.334 142.463 343.232 141.161 357.423 142.727C379.475 145.285 399.599 156.522 413.345 173.953C422.097 184.766 427.996 197.602 430.502 211.286C432.494 222.376 432.031 234.796 432.03 246.141L432.043 287.341L431.86 369.338C431.831 386.967 432.094 405.22 431.614 422.795C422.903 422.208 406.45 422.833 397.178 422.859L336.568 422.898C325.088 422.891 312.432 423.143 301.106 422.684Z"></path>

<path fill="#FB5119" d="M325.636 207.687C343.99 206.834 360.18 219.301 362.984 237.256C364.914 249.621 363.927 266.641 363.925 279.541L364.073 356.203C352.554 356.573 339.982 356.395 328.375 356.424C312.003 356.694 295.399 348.792 291.567 332.121C288.68 319.561 290.054 300.646 290.04 287.424L289.972 259.415C289.959 252.979 289.649 244.577 290.818 238.43C291.97 232.254 294.668 226.47 298.659 221.619C305.791 212.928 314.641 208.813 325.636 207.687Z"></path>

<!-- RIGHT LOWER WING -->
<path fill="#FB5119" d="M591.661 405.884C634.968 423.283 682.404 423.117 725.431 422.456C777.442 438.12 802.401 469.126 802.487 509.596C802.561 544.031 805.029 570.479 778.642 596.975C764.433 611.009 745.827 619.726 725.95 621.66C718.223 622.385 710.364 621.898 702.665 622.015C667.571 622.826 643.309 622.541 616.802 596.017C585.674 564.87 591.716 529.104 591.626 489.513Z"></path>

<!-- RIGHT INNER BLACK DETAIL -->
<path fill="#050505" d="M659.131 486.99C669.79 487.224 700.414 486.183 708.804 488.306C714.096 489.641 718.983 492.248 723.04 495.9C739.344 510.622 736.557 533.181 722.685 548.529C706.836 562.874 685.417 563.23 669.764 547.927C658.655 537.066 659.218 524.892 659.171 510.366Z"></path>

<!-- LEFT LOWER WING -->
<path fill="#FB5119" d="M301.106 422.684C336.568 422.898 397.178 422.859 431.614 422.795C431.611 502.612 433.348 546.641 426.951 563.977C418.564 586.365 401.714 604.561 380.033 614.638C373.494 617.614 366.582 619.688 359.485 620.802C352.21 621.882 339.966 621.589 332.062 621.559C320.659 621.517 306.411 622.155 295.37 620.804C288.975 620.003 282.704 618.416 276.698 616.077C254.671 607.693 237.482 592.17 227.999 570.492C225.284 564.296 223.368 557.781 222.295 551.102C220.939 542.291 221.281 507.085 222.487 498.275C223.4 491.738 225.077 485.332 227.484 479.186C239.599 448.635 269.003 428.792 300.423 423.014Z"></path>

<!-- LEFT INNER BLACK DETAIL -->
<path fill="#050505" d="M321.177 488.677C324.465 488.246 332.426 488.415 336.069 488.414L364.408 488.439C364.521 517.316 370.176 550.3 333.895 558.537C286.169 566.063 269.11 495.649 321.177 488.677Z"></path>

<path fill="#050505" d="M509.319 140.219C510.477 140.182 511.635 140.161 512.793 140.156C531.158 140.113 550.821 148.647 563.775 161.616C573.688 171.57 580.634 184.088 583.835 197.766C587.312 212.475 586.245 245.439 586.199 262.101L585.933 353.919L517.625 353.794L439.287 353.906C438.703 323.667 439.072 292.304 439.049 261.938L439.037 229.645C439.041 203.338 439.281 185.782 457.9 164.912C471.038 150.122 489.563 141.226 509.319 140.219Z"></path>

<path fill="#050505" d="M438.518 421.042L586.45 421.106L586.376 504.35C586.343 517.048 586.033 530.069 586.081 542.725C586.168 565.939 580.713 581.749 564.704 598.832C550.13 612.703 532.764 620.061 512.506 620.26C492.876 620.389 473.987 612.776 459.932 599.071C450.244 589.294 443.481 577.004 440.404 563.588C437.548 550.927 438.597 522.871 438.587 508.371Z"></path>

</svg>